<?xml version="1.0" encoding="utf-8"?>
<!-- Generator: Adobe Illustrator 21.0.2, SVG Export Plug-In . SVG Version: 6.00 Build 0)  -->
<svg version="1.1" id="Isolation_Mode" xmlns="http://www.w3.org/2000/svg" xmlns:xlink="http://www.w3.org/1999/xlink" x="0px"
	 y="0px" viewBox="0 0 170.6 35.8" enable-background="new 0 0 170.6 35.8" xml:space="preserve">
<g>
	<path fill="#C21336" d="M160.5,32.1c0.5-2.6,1.3-7.5,1.3-7.5s-4.8,1.5-9.8-1.4c-3.8-2.2-5.5-5.9-5.5-5.9
		c-8.5,8.6-19.7,13.8-45.2,15.2C63.1,34.7,0.1,35.4,0.1,35.4L0,35.8h156.1C158,35.8,160.1,34,160.5,32.1"/>
	<path fill="#25252F" d="M35,31.7h-6.9l3.8-21.1c-0.3,0-0.5,0.1-0.7,0.4L25,18.5c-1.7,2-3.5,3.1-5.3,3.1c-1.8,0-3.2-1-4.2-3.1
		L11.9,11c-0.1-0.3-0.3-0.4-0.5-0.4L7.6,31.7H0.7L6.2,0.9h6.9c1.8,0,3.2,1,4.2,3.1l3.6,7.5c0.1,0.3,0.3,0.4,0.5,0.4
		c0.3,0,0.5-0.1,0.7-0.4l6.3-7.5c1.7-2,3.5-3.1,5.3-3.1h6.9L35,31.7z"/>
	<path fill="#25252F" d="M69.6,24.9c-0.3,1.9-1.3,3.5-2.9,4.8c-1.6,1.3-3.3,2-5.2,2H47.8c-1.9,0-3.4-0.7-4.5-2
		c-1.1-1.3-1.5-3-1.2-4.8l4.3-24h6.9l-4.2,23.3c-0.1,0.5,0.1,0.7,0.6,0.7H62c0.5,0,0.8-0.2,0.8-0.7L67,0.9h6.9L69.6,24.9z"/>
	<path fill="#25252F" d="M96.3,24.2l2.8-15.8c0.1-0.5-0.1-0.7-0.6-0.7l-13,0l-3.1,17.2h13C96,24.9,96.2,24.6,96.3,24.2 M103.1,24.9
		c-0.3,1.9-1.3,3.5-2.9,4.8c-1.6,1.3-3.3,2-5.2,2H74.4l5.5-30.9h20.6c1.9,0,3.4,0.7,4.5,2c1.1,1.3,1.5,3,1.2,4.8L103.1,24.9z"/>
	<path fill="#25252F" d="M133.3,24.2l2.8-15.8c0.1-0.5-0.1-0.7-0.6-0.7h-15.8c-0.5,0-0.7,0.2-0.8,0.7l-2.8,15.8
		c-0.1,0.5,0.1,0.7,0.5,0.7h15.8C132.9,24.9,133.2,24.6,133.3,24.2 M140,24.9c-0.3,1.9-1.3,3.5-2.9,4.8c-1.6,1.3-3.3,2-5.2,2h-17.2
		c-1.9,0-3.4-0.7-4.5-2c-1.1-1.3-1.5-3-1.2-4.8l3.1-17.2c0.3-1.9,1.3-3.5,2.9-4.9c1.6-1.3,3.3-2,5.2-2h17.2c1.9,0,3.4,0.7,4.5,2
		c1.1,1.3,1.5,3,1.1,4.9L140,24.9z"/>
	<path fill="#25252F" d="M162.2,22.3c-4,1.2-8.3,0.4-11.4-2.8c-4.2-4.2-4.2-10.4-1.4-14.4c-2.7,6.8,1.2,10.9,1.2,10.9s-2.9-4-1-10
		c0.8-2.6,3.2-4.3,3.2-4.3c-4.5,6.2,0.1,10.7,0.1,10.7s-1.2-1.9-1.2-3.6c1.6,2.5,3.3,3.1,6.7,3.1c3.4,0,5.1,0.3,6.7,2.2
		C167.6,17.1,165.1,21.5,162.2,22.3"/>
	<path fill="#C21336" d="M155.8,0.5c4-1.2,8.3-0.4,11.4,2.8c4.2,4.2,4.2,10.4,1.4,14.4c2.7-6.8-1.2-10.9-1.2-10.9s2.9,4,1,10
		c-0.8,2.6-3.2,4.3-3.2,4.3c4.5-6.2-0.1-10.7-0.1-10.7s1.2,1.9,1.2,3.6c-1.6-2.5-3.3-3.1-6.7-3.1c-3.4,0-5.1-0.3-6.7-2.2
		C150.4,5.8,153,1.3,155.8,0.5"/>
</g>
</svg>
