<svg xmlns="http://www.w3.org/2000/svg" viewBox="0 0 170.6 35.8"><path fill="#C21336" d="M160.5 32.1c.5-2.6 1.3-7.5 1.3-7.5s-4.8 1.5-9.8-1.4c-3.8-2.2-5.5-5.9-5.5-5.9-8.5 8.6-19.7 13.8-45.2 15.2C63.1 34.7.1 35.4.1 35.4l-.1.4h156.1c1.9 0 4-1.8 4.4-3.7"/><path fill="#25252F" d="M35 31.7h-6.9l3.8-21.1c-.3 0-.5.1-.7.4L25 18.5c-1.7 2-3.5 3.1-5.3 3.1-1.8 0-3.2-1-4.2-3.1L11.9 11c-.1-.3-.3-.4-.5-.4L7.6 31.7H.7L6.2.9h6.9c1.8 0 3.2 1 4.2 3.1l3.6 7.5c.1.3.3.4.5.4.3 0 .5-.1.7-.4L28.4 4C30.1 2 31.9.9 33.7.9h6.9L35 31.7zM69.6 24.9c-.3 1.9-1.3 3.5-2.9 4.8-1.6 1.3-3.3 2-5.2 2H47.8c-1.9 0-3.4-.7-4.5-2s-1.5-3-1.2-4.8l4.3-24h6.9l-4.2 23.3c-.1.5.1.7.6.7H62c.5 0 .8-.2.8-.7L67 .9h6.9l-4.3 24zM96.3 24.2l2.8-15.8c.1-.5-.1-.7-.6-.7h-13l-3.1 17.2h13c.6 0 .8-.3.9-.7m6.8.7c-.3 1.9-1.3 3.5-2.9 4.8-1.6 1.3-3.3 2-5.2 2H74.4L79.9.8h20.6c1.9 0 3.4.7 4.5 2s1.5 3 1.2 4.8l-3.1 17.3zM133.3 24.2l2.8-15.8c.1-.5-.1-.7-.6-.7h-15.8c-.5 0-.7.2-.8.7l-2.8 15.8c-.1.5.1.7.5.7h15.8c.5 0 .8-.3.9-.7m6.7.7c-.3 1.9-1.3 3.5-2.9 4.8-1.6 1.3-3.3 2-5.2 2h-17.2c-1.9 0-3.4-.7-4.5-2s-1.5-3-1.2-4.8l3.1-17.2c.3-1.9 1.3-3.5 2.9-4.9 1.6-1.3 3.3-2 5.2-2h17.2c1.9 0 3.4.7 4.5 2s1.5 3 1.1 4.9l-3 17.2zM162.2 22.3c-4 1.2-8.3.4-11.4-2.8-4.2-4.2-4.2-10.4-1.4-14.4-2.7 6.8 1.2 10.9 1.2 10.9s-2.9-4-1-10c.8-2.6 3.2-4.3 3.2-4.3-4.5 6.2.1 10.7.1 10.7s-1.2-1.9-1.2-3.6c1.6 2.5 3.3 3.1 6.7 3.1 3.4 0 5.1.3 6.7 2.2 2.5 3 0 7.4-2.9 8.2"/><path fill="#C21336" d="M155.8.5c4-1.2 8.3-.4 11.4 2.8 4.2 4.2 4.2 10.4 1.4 14.4 2.7-6.8-1.2-10.9-1.2-10.9s2.9 4 1 10c-.8 2.6-3.2 4.3-3.2 4.3 4.5-6.2-.1-10.7-.1-10.7s1.2 1.9 1.2 3.6c-1.6-2.5-3.3-3.1-6.7-3.1-3.4 0-5.1-.3-6.7-2.2-2.5-2.9.1-7.4 2.9-8.2"/></svg>